<?xml version="1.0" encoding="utf-8"?>
<!-- Generator: Adobe Illustrator 23.0.2, SVG Export Plug-In . SVG Version: 6.00 Build 0)  -->
<svg version="1.1" id="Layer_1" xmlns="http://www.w3.org/2000/svg" xmlns:xlink="http://www.w3.org/1999/xlink" x="0px" y="0px"
	 viewBox="0 0 102 24.9" style="enable-background:new 0 0 102 24.9;" xml:space="preserve">
<style type="text/css">
	.st0{enable-background:new    ;}
	.st1{fill:#22231E;}
	.st2{fill:#C0C0C0;}
</style>
<g id="Group_1514" transform="translate(-1244 -565.363)">
	<g class="st0">
		<path class="st1" d="M1248.6,569.8c2.1,0,3.6,1.2,4.1,3.1h-2.5c-0.3-0.6-0.9-1-1.6-1c-1.1,0-1.8,0.8-1.8,2.1
			c0,1.3,0.7,2.1,1.8,2.1c0.7,0,1.3-0.3,1.6-1h2.5c-0.4,1.9-1.9,3.1-4.1,3.1c-2.5,0-4.2-1.8-4.2-4.3
			C1244.4,571.6,1246.1,569.8,1248.6,569.8z"/>
		<path class="st1" d="M1256.9,578.4c-2,0-3.5-1.3-3.5-3.5c0-2.1,1.5-3.4,3.5-3.4s3.5,1.3,3.5,3.4
			C1260.4,577.1,1258.9,578.4,1256.9,578.4z M1256.9,576.4c0.6,0,1.2-0.4,1.2-1.4c0-1-0.5-1.4-1.1-1.4s-1.1,0.4-1.1,1.4
			C1255.8,576,1256.3,576.4,1256.9,576.4z"/>
		<path class="st1" d="M1270.6,574.8c0-0.7-0.4-1.1-1.1-1.1c-0.7,0-1.1,0.4-1.1,1.1v3.6h-2.4v-3.6c0-0.7-0.4-1.1-1.1-1.1
			c-0.7,0-1.1,0.4-1.1,1.1v3.6h-2.4v-6.7h2.4v0.9c0.4-0.5,1-0.9,2-0.9c1,0,1.8,0.5,2.2,1.2c0.5-0.7,1.2-1.2,2.2-1.2
			c1.7,0,2.7,1.1,2.7,2.9v3.9h-2.4V574.8z"/>
		<path class="st1" d="M1278.5,571.6c1.6,0,2.9,1.3,2.9,3.4s-1.3,3.5-2.9,3.5c-0.9,0-1.6-0.4-2-1v4.1h-2.4v-9.9h2.4v0.9
			C1276.9,572,1277.6,571.6,1278.5,571.6z M1277.8,573.6c-0.7,0-1.2,0.5-1.2,1.4c0,0.9,0.6,1.4,1.2,1.4s1.2-0.5,1.2-1.4
			C1279,574.1,1278.4,573.6,1277.8,573.6z"/>
		<path class="st1" d="M1284.8,571.6c1,0,1.6,0.4,2,1v-0.9h2.4v6.7h-2.4v-0.9c-0.3,0.6-1,1-2,1c-1.6,0-2.9-1.3-2.9-3.5
			S1283.3,571.6,1284.8,571.6z M1285.6,573.6c-0.7,0-1.2,0.5-1.2,1.4c0,0.9,0.6,1.4,1.2,1.4c0.7,0,1.2-0.5,1.2-1.4
			C1286.8,574.1,1286.3,573.6,1285.6,573.6z"/>
		<path class="st1" d="M1295.1,574.8c0-0.8-0.4-1.2-1.1-1.2c-0.7,0-1.1,0.5-1.1,1.2v3.6h-2.4v-6.7h2.4v1c0.4-0.6,1.1-1,2.1-1
			c1.6,0,2.5,1.1,2.5,2.9v3.9h-2.4V574.8z"/>
		<path class="st1" d="M1303.4,571.6h2.6l-4.3,9.9h-2.6l1.6-3.5l-2.8-6.4h2.6l1.4,3.8L1303.4,571.6z"/>
		<path class="st1" d="M1316.7,569.9v8.5h-2.3l-3.1-4.7v4.7h-2.4v-8.5h2.4l3.1,4.8v-4.8H1316.7z"/>
		<path class="st1" d="M1320.6,571.6c1,0,1.6,0.4,2,1v-0.9h2.3v6.7h-2.3v-0.9c-0.3,0.6-1,1-2,1c-1.6,0-2.9-1.3-2.9-3.5
			S1319,571.6,1320.6,571.6z M1321.3,573.6c-0.7,0-1.2,0.5-1.2,1.4c0,0.9,0.6,1.4,1.2,1.4c0.7,0,1.2-0.5,1.2-1.4
			C1322.5,574.1,1322,573.6,1321.3,573.6z"/>
		<path class="st1" d="M1335.4,574.8c0-0.7-0.4-1.1-1.1-1.1c-0.7,0-1.1,0.4-1.1,1.1v3.6h-2.4v-3.6c0-0.7-0.4-1.1-1.1-1.1
			c-0.7,0-1.1,0.4-1.1,1.1v3.6h-2.4v-6.7h2.4v0.9c0.4-0.5,1-0.9,2-0.9c1,0,1.8,0.5,2.2,1.2c0.5-0.7,1.2-1.2,2.2-1.2
			c1.7,0,2.7,1.1,2.7,2.9v3.9h-2.4V574.8z"/>
		<path class="st1" d="M1342.1,578.4c-2,0-3.4-1.3-3.4-3.5c0-2.1,1.4-3.4,3.4-3.4c2,0,3.4,1.3,3.4,3.4c0,0.2,0,0.4,0,0.6h-4.4
			c0,0.8,0.5,1.1,1,1.1c0.5,0,0.7-0.3,0.8-0.5h2.5C1345,577.4,1343.8,578.4,1342.1,578.4z M1341,574.3h2.1c0-0.6-0.5-0.9-1-0.9
			C1341.5,573.4,1341.1,573.7,1341,574.3z"/>
	</g>
	<g class="st0">
		<path class="st2" d="M1260.8,588.3c-0.8,0-1.4-0.5-1.4-1.2h0.6c0,0.3,0.3,0.7,0.9,0.7c0.5,0,0.8-0.3,0.8-0.7c0-1.1-2.3-0.4-2.3-2
			c0-0.7,0.6-1.2,1.4-1.2c0.8,0,1.3,0.4,1.4,1.1h-0.6c0-0.3-0.3-0.6-0.8-0.6c-0.4,0-0.8,0.2-0.8,0.7c0,1.1,2.3,0.4,2.3,2
			C1262.2,587.7,1261.7,588.3,1260.8,588.3z"/>
		<path class="st2" d="M1264.4,588.3c-0.9,0-1.6-0.7-1.6-1.7c0-1,0.7-1.7,1.7-1.7c0.9,0,1.7,0.7,1.7,1.7
			C1266.1,587.6,1265.4,588.3,1264.4,588.3z M1264.4,587.8c0.6,0,1.1-0.4,1.1-1.2c0-0.8-0.5-1.2-1.1-1.2c-0.6,0-1.1,0.4-1.1,1.2
			C1263.3,587.4,1263.8,587.8,1264.4,587.8z"/>
		<path class="st2" d="M1271.6,586.4c0-0.7-0.4-1-0.9-1c-0.6,0-0.9,0.4-0.9,1.1v1.8h-0.5v-1.9c0-0.7-0.4-1-0.9-1
			c-0.6,0-0.9,0.4-0.9,1.1v1.8h-0.5V585h0.5v0.5c0.2-0.3,0.6-0.5,1-0.5c0.5,0,1,0.2,1.2,0.7c0.2-0.5,0.7-0.7,1.2-0.7
			c0.7,0,1.3,0.5,1.3,1.4v1.9h-0.5V586.4z"/>
		<path class="st2" d="M1274.4,588.3c-0.9,0-1.6-0.7-1.6-1.7c0-1,0.7-1.7,1.6-1.7c1,0,1.6,0.7,1.6,1.6c0,0.1,0,0.2,0,0.3h-2.6
			c0,0.7,0.5,1,1.1,1c0.5,0,0.8-0.3,0.9-0.6h0.6C1275.8,587.8,1275.2,588.3,1274.4,588.3z M1273.4,586.4h2.1c0-0.6-0.5-1-1-1
			C1273.9,585.4,1273.4,585.7,1273.4,586.4z"/>
		<path class="st2" d="M1280.8,587.3h-1.8l-0.3,0.9h-0.6l1.5-4.2h0.6l1.5,4.2h-0.6L1280.8,587.3z M1279.9,584.8l-0.8,2.1h1.5
			L1279.9,584.8z"/>
		<path class="st2" d="M1282,585h0.6l0.8,2.8l0.8-2.8h0.6l0.8,2.8l0.7-2.8h0.5l-1,3.3h-0.6l-0.8-2.6l-0.8,2.6h-0.6L1282,585z"/>
		<path class="st2" d="M1288.7,588.3c-0.9,0-1.6-0.7-1.6-1.7c0-1,0.7-1.7,1.6-1.7c1,0,1.6,0.7,1.6,1.6c0,0.1,0,0.2,0,0.3h-2.6
			c0,0.7,0.5,1,1.1,1c0.5,0,0.8-0.3,0.9-0.6h0.6C1290.1,587.8,1289.5,588.3,1288.7,588.3z M1287.6,586.4h2.1c0-0.6-0.5-1-1-1
			C1288.2,585.4,1287.7,585.7,1287.6,586.4z"/>
		<path class="st2" d="M1292.2,588.3c-0.8,0-1.3-0.4-1.3-1h0.6c0,0.3,0.3,0.6,0.8,0.6c0.4,0,0.7-0.2,0.7-0.5c0-0.7-1.9-0.3-1.9-1.5
			c0-0.5,0.5-0.9,1.2-0.9c0.7,0,1.2,0.4,1.2,1h-0.5c0-0.3-0.3-0.6-0.7-0.6c-0.4,0-0.6,0.2-0.6,0.5c0,0.8,1.9,0.4,1.9,1.5
			C1293.4,587.9,1292.9,588.3,1292.2,588.3z"/>
		<path class="st2" d="M1295.6,588.3c-0.9,0-1.6-0.7-1.6-1.7c0-1,0.7-1.7,1.7-1.7c0.9,0,1.7,0.7,1.7,1.7
			C1297.3,587.6,1296.5,588.3,1295.6,588.3z M1295.6,587.8c0.6,0,1.1-0.4,1.1-1.2c0-0.8-0.5-1.2-1.1-1.2c-0.6,0-1.1,0.4-1.1,1.2
			C1294.5,587.4,1295,587.8,1295.6,587.8z"/>
		<path class="st2" d="M1302.7,586.4c0-0.7-0.4-1-0.9-1c-0.6,0-0.9,0.4-0.9,1.1v1.8h-0.5v-1.9c0-0.7-0.4-1-0.9-1
			c-0.6,0-0.9,0.4-0.9,1.1v1.8h-0.5V585h0.5v0.5c0.2-0.3,0.6-0.5,1-0.5c0.5,0,1,0.2,1.2,0.7c0.2-0.5,0.7-0.7,1.2-0.7
			c0.7,0,1.3,0.5,1.3,1.4v1.9h-0.5V586.4z"/>
		<path class="st2" d="M1305.6,588.3c-0.9,0-1.6-0.7-1.6-1.7c0-1,0.7-1.7,1.6-1.7c1,0,1.6,0.7,1.6,1.6c0,0.1,0,0.2,0,0.3h-2.6
			c0,0.7,0.5,1,1.1,1c0.5,0,0.8-0.3,0.9-0.6h0.6C1306.9,587.8,1306.4,588.3,1305.6,588.3z M1304.5,586.4h2.1c0-0.6-0.5-1-1-1
			C1305,585.4,1304.6,585.7,1304.5,586.4z"/>
		<path class="st2" d="M1309.2,584.1h2.8v0.4h-1.1v3.7h-0.5v-3.7h-1.1V584.1z"/>
		<path class="st2" d="M1314.1,584.9c0.6,0,1,0.3,1.2,0.7V585h0.6v3.3h-0.6v-0.6c-0.2,0.4-0.6,0.7-1.2,0.7c-0.9,0-1.6-0.7-1.6-1.7
			C1312.5,585.6,1313.2,584.9,1314.1,584.9z M1314.2,585.4c-0.6,0-1.1,0.4-1.1,1.2s0.5,1.2,1.1,1.2s1.1-0.5,1.1-1.2
			C1315.3,585.8,1314.8,585.4,1314.2,585.4z"/>
		<path class="st2" d="M1318.1,584.9c0.6,0,1,0.3,1.2,0.7V585h0.6v3.4c0,0.9-0.6,1.5-1.6,1.5c-0.9,0-1.5-0.4-1.6-1.1h0.5
			c0.1,0.4,0.5,0.7,1,0.7c0.6,0,1-0.4,1-1.1v-0.7c-0.2,0.4-0.6,0.7-1.2,0.7c-0.9,0-1.6-0.7-1.6-1.7
			C1316.6,585.6,1317.3,584.9,1318.1,584.9z M1318.2,585.4c-0.6,0-1.1,0.4-1.1,1.2s0.5,1.2,1.1,1.2s1.1-0.5,1.1-1.2
			C1319.4,585.8,1318.8,585.4,1318.2,585.4z"/>
		<path class="st2" d="M1320.8,583.8h0.5v4.4h-0.5V583.8z"/>
		<path class="st2" d="M1322.2,584.1c0-0.2,0.2-0.4,0.4-0.4c0.2,0,0.4,0.2,0.4,0.4s-0.2,0.4-0.4,0.4
			C1322.4,584.4,1322.2,584.3,1322.2,584.1z M1322.3,585h0.5v3.3h-0.5V585z"/>
		<path class="st2" d="M1326.2,586.4c0-0.7-0.4-1-0.9-1c-0.6,0-0.9,0.3-0.9,1.1v1.8h-0.5V585h0.5v0.5c0.2-0.3,0.6-0.5,1.1-0.5
			c0.8,0,1.3,0.5,1.3,1.4v1.9h-0.5V586.4z"/>
		<path class="st2" d="M1329.1,588.3c-0.9,0-1.6-0.7-1.6-1.7c0-1,0.7-1.7,1.6-1.7c1,0,1.6,0.7,1.6,1.6c0,0.1,0,0.2,0,0.3h-2.6
			c0,0.7,0.5,1,1.1,1c0.5,0,0.8-0.3,0.9-0.6h0.6C1330.4,587.8,1329.9,588.3,1329.1,588.3z M1328,586.4h2.1c0-0.6-0.5-1-1-1
			C1328.5,585.4,1328.1,585.7,1328,586.4z"/>
	</g>
</g>
</svg>
